<svg xmlns="http://www.w3.org/2000/svg" width="26.243" height="24.053" viewBox="0 0 26.243 24.053"><defs><style>.a{fill:#303030;}</style></defs><path class="a" d="M121.378,386.758H100.859l-.305-3.4a1.078,1.078,0,0,0-1.073-.981h-2.19a1.078,1.078,0,0,0,0,2.156h1.2l1.24,13.81a4.146,4.146,0,0,0,1.552,2.809,3.267,3.267,0,1,0,5.645.9h5.9A3.267,3.267,0,1,0,115.9,399.9H103.867a2,2,0,0,1-1.84-1.213l17.224-1.012a1.078,1.078,0,0,0,.982-.815l2.19-8.759a1.078,1.078,0,0,0-1.046-1.339ZM103.86,404.276a1.112,1.112,0,1,1,1.112-1.112A1.113,1.113,0,0,1,103.86,404.276Zm12.043,0a1.112,1.112,0,1,1,1.112-1.112A1.113,1.113,0,0,1,115.9,404.276Zm2.431-8.711-16.6.975-.685-7.627H120Z" transform="translate(-96.213 -382.379)"/></svg>