<svg xmlns="http://www.w3.org/2000/svg" width="10.616" height="21.015" viewBox="0 0 10.616 21.015"><defs><style>.a{fill:#303030;}</style></defs><path class="a" d="M77.042,11.193h2.3v9.484a.339.339,0,0,0,.339.339H83.59a.339.339,0,0,0,.339-.339V11.237h2.648a.339.339,0,0,0,.337-.3l.4-3.491a.339.339,0,0,0-.337-.378h-3.05V4.879c0-.66.355-.994,1.056-.994H86.98a.339.339,0,0,0,.339-.339V.341A.339.339,0,0,0,86.98,0H84.231c-.019,0-.062,0-.126,0a5.267,5.267,0,0,0-3.444,1.3,3.612,3.612,0,0,0-1.2,3.21V7.068H77.042a.339.339,0,0,0-.339.339v3.447A.339.339,0,0,0,77.042,11.193Z" transform="translate(-76.703)"/></svg>