<svg xmlns="http://www.w3.org/2000/svg" width="18.19" height="18.19" viewBox="0 0 18.19 18.19"><defs><style>.a{fill:#303030;}</style></defs><path class="a" d="M13.17,0H5.02A5.025,5.025,0,0,0,0,5.02v8.15a5.025,5.025,0,0,0,5.02,5.02h8.15a5.025,5.025,0,0,0,5.02-5.02V5.02A5.025,5.025,0,0,0,13.17,0Zm3.406,13.17a3.41,3.41,0,0,1-3.406,3.406H5.02A3.41,3.41,0,0,1,1.614,13.17V5.02A3.41,3.41,0,0,1,5.02,1.614h8.15A3.41,3.41,0,0,1,16.576,5.02v8.15Z"/><path class="a" d="M45.655,40.97a4.687,4.687,0,1,0,4.687,4.687A4.692,4.692,0,0,0,45.655,40.97Zm0,7.76a3.073,3.073,0,1,1,3.073-3.073A3.077,3.077,0,0,1,45.655,48.73Z" transform="translate(-36.56 -36.562)"/><path class="a" d="M120.1,28.251a1.183,1.183,0,1,0,.837.346A1.188,1.188,0,0,0,120.1,28.251Z" transform="translate(-106.126 -25.211)"/></svg>