<svg xmlns="http://www.w3.org/2000/svg" width="12.204" height="12.177" viewBox="0 0 12.204 12.177"><defs><style>.a{fill:#858585;}</style></defs><g transform="translate(0 0)"><path class="a" d="M11.93,10.025,10.045,8.14a.983.983,0,0,0-1.386.026l-.95.949-.187-.1A9.449,9.449,0,0,1,5.239,7.359,9.5,9.5,0,0,1,3.584,5.071c-.035-.064-.069-.125-.1-.183l.637-.636.313-.314a.982.982,0,0,0,.025-1.386L2.573.667A.982.982,0,0,0,1.187.693l-.531.534.015.014a3.072,3.072,0,0,0-.438.772A3.2,3.2,0,0,0,.038,2.8C-.211,4.86.732,6.746,3.291,9.3c3.537,3.537,6.387,3.269,6.51,3.256a3.185,3.185,0,0,0,.785-.2,3.061,3.061,0,0,0,.769-.436l.012.01.538-.527A.984.984,0,0,0,11.93,10.025Z" transform="translate(0 -0.394)"/></g></svg>