<svg xmlns="http://www.w3.org/2000/svg" width="21.518" height="17.484" viewBox="0 0 21.518 17.484"><defs><style>.a{fill:#303030;}</style></defs><g transform="translate(0 0)"><path class="a" d="M21.518,50.07a9.2,9.2,0,0,1-2.542.7,4.387,4.387,0,0,0,1.941-2.438,8.816,8.816,0,0,1-2.8,1.068,4.411,4.411,0,0,0-7.631,3.017,4.542,4.542,0,0,0,.1,1.006A12.487,12.487,0,0,1,1.5,48.8a4.413,4.413,0,0,0,1.356,5.9,4.357,4.357,0,0,1-1.993-.543v.048A4.432,4.432,0,0,0,4.4,58.54a4.4,4.4,0,0,1-1.157.145A3.9,3.9,0,0,1,2.4,58.61a4.453,4.453,0,0,0,4.122,3.073,8.864,8.864,0,0,1-5.47,1.882A8.262,8.262,0,0,1,0,63.5a12.419,12.419,0,0,0,6.768,1.98A12.469,12.469,0,0,0,19.323,52.93c0-.2-.007-.383-.016-.57A8.8,8.8,0,0,0,21.518,50.07Z" transform="translate(0 -48)"/></g></svg>